# xmcd
#
# Track frame offsets: 
#        150
#        11452
#        23916
#        34823
#        43024
#        53747
#        64928
#        65229
#        80113
#        92399
#        105371
#        114893
#        126610
#        140411
#        151702
#        163416
#        172875
#        184318
#        193541
#        201222
#        212005
#        222520
#        232831
#        243733
#        253503
#        264060
#        274544
#        286068
#        296487
#        308819
#        318361
#        330440
#
# Disc length: 4544 seconds
#
# Revision: 1
# Processed by: cddbd v1.5.2PL0 Copyright (c) Steve Scherf et al.
# Submitted via: ExactAudioCopy v1.1
#
DISCID=c911be20
DTITLE=Various Artist - The Bakersfield Sound (Bear Family) - Disc 2
DYEAR=2019
DGENRE=Country
TTITLE0=Tommy Collins - You Better Not Do That (mono)
TTITLE1=Dallas Frazier - Ain't You Had No Bringin' Up At All (mono)
TTITLE2=Bud Hobbs - Louisiana Swing (mono)
TTITLE3=Forrest Lee and Clete Stewart - When I Hold You (mono)
TTITLE4=Buck Owens - Down On The Corner Of Love (mono)
TTITLE5=Dave Stogner and His Western Rhythmaires - Stepping Stones (mono
TTITLE5=)
TTITLE6=Herb Henson and Joyce Yours - Out Of Line (mono)
TTITLE7=Semie Moseley - When The Saints Go Marching In (mono)
TTITLE8=Jean Shepard - Take Possession (mono)
TTITLE9=The Farmer Boys - It Pays To Advertise (mono)
TTITLE10=Wynn Stewart - Why Do I Love You So (mono)
TTITLE11=Tommy Duncan - Crazy Mixed Up Kid (mono)
TTITLE12=Johnny Taylor - Sad Sad Saturday Night (mono)
TTITLE13=Wanda Jackson - I Gotta Know (mono)
TTITLE14=Billy Mize - Who Will Buy The Wine (mono)
TTITLE15=Al Coker with The Coker Family - Baby I Like Your Style (mono
TTITLE15=)
TTITLE16=Louise Duncan - Wherever You Are (mono)
TTITLE17=Sid Silver - Bumble Rumble (mono)
TTITLE18=Andy Morris - I Need Her Love (mono)
TTITLE19=Dusty Payne - I Want You (mono)
TTITLE20=Fuzzy Owen - You're Every Thing (I Wish That She Could Be) (m
TTITLE20=ono)
TTITLE21=Bonnie Blue Bell - I Never Thought (mono)
TTITLE22=Jan Howard - What Time Tomorrow (mono)
TTITLE23=George Rich - Drivin' Away My Blues (mono)
TTITLE24=Bill Woods - Ask Me No Questions (mono)
TTITLE25=Fuzzy Owen - Beware Of A Stranger (mono)
TTITLE26=Skeets McDonald - Keep Her Off Your Mind (mono)
TTITLE27=Dave Stogner - Yes Sir (mono)
TTITLE28=Harlan Howard - Fun On The Freeway (mono)
TTITLE29=Cliff Crofford - A Night For Love (mono)
TTITLE30=The Farmer Boys - Someone To Love (mono)
TTITLE31=Buck Owens - Come Back To Me (mono)
EXTD=
EXTT0=
EXTT1=
EXTT2=
EXTT3=
EXTT4=
EXTT5=
EXTT6=
EXTT7=
EXTT8=
EXTT9=
EXTT10=
EXTT11=
EXTT12=
EXTT13=
EXTT14=
EXTT15=
EXTT16=
EXTT17=
EXTT18=
EXTT19=
EXTT20=
EXTT21=
EXTT22=
EXTT23=
EXTT24=
EXTT25=
EXTT26=
EXTT27=
EXTT28=
EXTT29=
EXTT30=
EXTT31=
PLAYORDER=
